<svg width="13" height="14" viewBox="0 0 13 14" fill="none" xmlns="http://www.w3.org/2000/svg">
<path d="M6.5 0.5C2.91603 0.5 0 3.41389 0 6.99523C0 8.58567 0.576336 10.1055 1.62977 11.2936C1.58779 11.5053 1.51527 11.8123 1.4084 12.0621C1.26336 12.4035 0.883588 12.7105 0.75 12.8001C0.608779 12.8936 0.545802 13.0671 0.593511 13.2273C0.641221 13.3894 0.790076 13.5 0.959924 13.5H6.49809C6.51145 13.5 6.52481 13.5 6.54008 13.5C8.28053 13.5 9.89695 12.8478 11.0935 11.6578C12.3225 10.4355 13 8.78018 13 6.99333C12.9981 3.41389 10.0821 0.5 6.5 0.5ZM10.5534 11.1163C9.50191 12.1613 8.07634 12.7353 6.53626 12.7353C6.5229 12.7353 6.51145 12.7353 6.5 12.7353H1.89504C1.9771 12.6209 2.05153 12.495 2.10878 12.3596C2.27863 11.9611 2.37214 11.4862 2.41412 11.2383C2.43321 11.1201 2.39695 11.0018 2.31679 10.9141C1.31489 9.8481 0.763359 8.45599 0.763359 6.99333C0.763359 3.83343 3.33588 1.26089 6.5 1.26089C9.66412 1.26089 12.2366 3.83152 12.2366 6.99333C12.2366 8.57423 11.6393 10.0388 10.5553 11.1163H10.5534Z" fill="#B8BBC1"/>
<path d="M3.49237 7.88771C3.98352 7.88771 4.38168 7.48984 4.38168 6.99905C4.38168 6.50825 3.98352 6.11039 3.49237 6.11039C3.00121 6.11039 2.60305 6.50825 2.60305 6.99905C2.60305 7.48984 3.00121 7.88771 3.49237 7.88771Z" fill="#B8BBC1"/>
<path d="M6.46947 7.88771C6.96062 7.88771 7.35878 7.48984 7.35878 6.99905C7.35878 6.50825 6.96062 6.11039 6.46947 6.11039C5.97831 6.11039 5.58015 6.50825 5.58015 6.99905C5.58015 7.48984 5.97831 7.88771 6.46947 7.88771Z" fill="#B8BBC1"/>
<path d="M9.44656 7.88771C9.93772 7.88771 10.3359 7.48984 10.3359 6.99905C10.3359 6.50825 9.93772 6.11039 9.44656 6.11039C8.95541 6.11039 8.55725 6.50825 8.55725 6.99905C8.55725 7.48984 8.95541 7.88771 9.44656 7.88771Z" fill="#B8BBC1"/>
</svg>
