<svg width="16" height="16" viewBox="0 0 16 16" fill="none" xmlns="http://www.w3.org/2000/svg">
<path d="M13.5279 6.07089L13.5284 6.0735C13.4093 5.59903 13.2324 5.14747 13.0056 4.72677L13.0084 4.73179L14.2228 3.26541L13.2285 2.2711L12.2342 1.27678L10.816 2.45139L10.8208 2.45434C10.3845 2.19638 9.91195 1.9934 9.4126 1.85476L9.41806 1.85618L9.24735 0.0396729H6.43497L6.26426 1.85629L6.26579 1.85585C5.76939 1.99405 5.29928 2.19594 4.86527 2.45216L4.86636 2.45139L3.44806 1.27678L2.45373 2.2711L1.4594 3.26541L2.67385 4.73179L2.67624 4.72743C2.44893 5.14932 2.27169 5.60231 2.15269 6.07819L2.15443 6.07089L0.222168 6.25249V7.65878V9.06495L2.24311 9.25485C2.24289 9.2543 2.24278 9.25376 2.24256 9.25321L2.24311 9.25485C2.37618 9.68121 2.55681 10.0866 2.77845 10.465L2.77638 10.4617L1.4594 12.0519L2.45373 13.0462L3.44806 14.0405L5.08713 12.683L5.08549 12.6821C5.44762 12.8753 5.83233 13.0316 6.2347 13.146L6.43497 15.2778H9.24735L9.44762 13.146L9.44347 13.1471C9.84901 13.0322 10.2367 12.8747 10.6014 12.6796L10.5953 12.683L12.2343 14.0404L13.2286 13.0461L14.2229 12.0518L12.9059 10.4616C13.127 10.0837 13.307 9.67881 13.4398 9.25299L13.4393 9.25474L15.4603 9.06484V7.65867V6.25238L13.5281 6.07078L13.5279 6.07089ZM9.7732 9.43743C9.27877 9.93186 8.59574 10.2376 7.84116 10.2376C7.08658 10.2376 6.40344 9.93186 5.90912 9.43743C5.41468 8.943 5.10894 8.25988 5.10894 7.50531C5.10894 6.75074 5.41479 6.06761 5.90912 5.57329C6.40355 5.07886 7.08669 4.77302 7.84116 4.77302C8.59563 4.77302 9.27877 5.07886 9.7732 5.57329C10.2676 6.06772 10.5735 6.75085 10.5735 7.50531C10.5735 8.25977 10.2676 8.943 9.7732 9.43743Z" fill="white"/>
</svg>
