<svg width="186" height="22" viewBox="0 0 186 22" fill="none" xmlns="http://www.w3.org/2000/svg">
<g clip-path="url(#clip0_525_10713)">
<rect width="186" height="22" rx="3" fill="url(#paint0_angular_525_10713)"/>
<mask id="mask0_525_10713" style="mask-type:alpha" maskUnits="userSpaceOnUse" x="0" y="0" width="186" height="22">
<rect x="1.5" y="1.5" width="183" height="19" rx="1.5" fill="url(#paint1_angular_525_10713)"/>
<rect x="1.5" y="1.5" width="183" height="19" rx="1.5" stroke="#A2B7F9" stroke-width="3"/>
</mask>
<g mask="url(#mask0_525_10713)">
<rect x="-13" y="23.7939" width="18.0934" height="18.0934" transform="rotate(-45 -13 23.7939)" fill="#A2B7F9"/>
<rect x="173" y="-1.20605" width="18.0934" height="18.0934" transform="rotate(-45 173 -1.20605)" fill="#A2B7F9"/>
</g>
<path d="M44.2958 6.10156L46.8661 13.9082H46.9755L49.5595 6.10156H51.5146L48.0146 16H45.8271L42.3407 6.10156H44.2958ZM53.9077 6.10156V16H52.1304V6.10156H53.9077ZM55.1934 16V6.10156H61.6329V7.5918H56.9707V10.2988H61.2911V11.7891H56.9707V14.4961H61.6602V16H55.1934ZM64.8736 16L62.0846 6.10156H63.9986L65.7896 13.3887H65.8854L67.7857 6.10156H69.5357L71.4498 13.4023H71.5318L73.3229 6.10156H75.2369L72.4479 16H70.6842L68.7018 9.04102H68.6334L66.6373 16H64.8736ZM78.5739 6.10156H80.7614L83.7009 13.293H83.8239L86.7634 6.10156H88.9509V16H87.2419V9.19141H87.1462L84.3982 15.9727H83.1267L80.3786 9.16406H80.2966V16H78.5739V6.10156ZM91.4807 16H89.5804L93.0667 6.10156H95.2542L98.7542 16H96.8538L96.0335 13.5527H92.3011L91.4807 16ZM92.7796 12.1172H95.555L94.2014 8.125H94.1194L92.7796 12.1172ZM97.7293 7.5918V6.10156H105.618V7.5918H102.569V16H100.792V7.5918H97.7293ZM112.687 9.4375C112.482 8.24805 111.525 7.56445 110.322 7.56445C108.695 7.56445 107.56 8.80859 107.56 11.0508C107.56 13.3203 108.708 14.5371 110.322 14.5371C111.497 14.5371 112.454 13.8809 112.687 12.7188H114.478C114.204 14.6191 112.646 16.1367 110.294 16.1367C107.683 16.1367 105.769 14.2363 105.769 11.0508C105.769 7.85156 107.71 5.96484 110.294 5.96484C112.482 5.96484 114.177 7.23633 114.478 9.4375H112.687ZM115.449 16V6.10156H117.227V10.2988H121.834V6.10156H123.625V16H121.834V11.7891H117.227V16H115.449ZM131.145 6.10156H132.936V12.5684C132.936 14.6875 131.323 16.1504 128.917 16.1504C126.497 16.1504 124.897 14.6875 124.897 12.5684V6.10156H126.674V12.418C126.674 13.6621 127.549 14.5645 128.917 14.5645C130.284 14.5645 131.145 13.6621 131.145 12.418V6.10156ZM134.208 16V6.10156H137.927C140.196 6.10156 141.413 7.48242 141.413 9.38281C141.413 11.2832 140.183 12.6504 137.899 12.6504H135.985V16H134.208ZM135.985 11.1875H137.653C138.993 11.1875 139.595 10.4355 139.595 9.38281C139.595 8.31641 138.993 7.5918 137.653 7.5918H135.985V11.1875Z" fill="white"/>
</g>
<rect x="0.5" y="0.5" width="185" height="21" rx="2.5" stroke="#A2B7F9"/>
<defs>
<radialGradient id="paint0_angular_525_10713" cx="0" cy="0" r="1" gradientUnits="userSpaceOnUse" gradientTransform="translate(109.238 24.1154) rotate(-12.9389) scale(124.706 82.4741)">
<stop stop-color="#819AEC"/>
<stop offset="0.5" stop-color="#4861B3"/>
</radialGradient>
<radialGradient id="paint1_angular_525_10713" cx="0" cy="0" r="1" gradientUnits="userSpaceOnUse" gradientTransform="translate(109.238 24.1154) rotate(-12.9389) scale(124.706 82.4741)">
<stop stop-color="#819AEC"/>
<stop offset="0.5" stop-color="#4861B3"/>
</radialGradient>
<clipPath id="clip0_525_10713">
<rect width="186" height="22" rx="3" fill="white"/>
</clipPath>
</defs>
</svg>
