<svg width="186" height="22" viewBox="0 0 186 22" fill="none" xmlns="http://www.w3.org/2000/svg">
<g clip-path="url(#clip0_526_4622)">
<rect width="186" height="22" rx="3" fill="url(#paint0_angular_526_4622)"/>
<mask id="mask0_526_4622" style="mask-type:alpha" maskUnits="userSpaceOnUse" x="0" y="0" width="186" height="22">
<rect x="1.5" y="1.5" width="183" height="19" rx="1.5" fill="url(#paint1_angular_526_4622)"/>
<rect x="1.5" y="1.5" width="183" height="19" rx="1.5" stroke="#A2B7F9" stroke-width="3"/>
</mask>
<g mask="url(#mask0_526_4622)">
<rect x="-13" y="23.7939" width="18.0934" height="18.0934" transform="rotate(-45 -13 23.7939)" fill="#E0E4EA"/>
<rect x="173" y="-1.20605" width="18.0934" height="18.0934" transform="rotate(-45 173 -1.20605)" fill="#E0E4EA"/>
</g>
<path d="M62.7202 8.82227C62.6382 7.97461 61.9136 7.48242 60.8471 7.48242C59.7261 7.48242 59.0425 8.0293 59.0425 8.76758C59.0425 9.60156 59.9175 9.94336 60.7378 10.1348L61.6675 10.3809C63.144 10.7227 64.5659 11.502 64.5659 13.2246C64.5659 14.9609 63.1987 16.1504 60.8198 16.1504C58.5093 16.1504 57.06 15.043 56.978 13.0879H58.728C58.81 14.127 59.685 14.6328 60.8061 14.6328C61.9819 14.6328 62.7886 14.0586 62.7886 13.2109C62.7886 12.4316 62.0639 12.1035 60.9975 11.8301L59.8764 11.543C58.2495 11.1191 57.2378 10.2988 57.2378 8.87695C57.2378 7.12695 58.7964 5.96484 60.8745 5.96484C62.98 5.96484 64.4018 7.1543 64.4292 8.82227H62.7202ZM65.045 7.5918V6.10156H72.9336V7.5918H69.8848V16H68.1075V7.5918H65.045ZM73.8229 16H71.9225L75.4088 6.10156H77.5963L81.0963 16H79.1959L78.3756 13.5527H74.6432L73.8229 16ZM75.1217 12.1172H77.8971L76.5436 8.125H76.4615L75.1217 12.1172ZM80.0714 7.5918V6.10156H87.9601V7.5918H84.9113V16H83.1339V7.5918H80.0714ZM90.572 6.10156V16H88.7946V6.10156H90.572ZM97.2444 8.82227C97.1624 7.97461 96.4378 7.48242 95.3714 7.48242C94.2503 7.48242 93.5667 8.0293 93.5667 8.76758C93.5667 9.60156 94.4417 9.94336 95.262 10.1348L96.1917 10.3809C97.6682 10.7227 99.0901 11.502 99.0901 13.2246C99.0901 14.9609 97.7229 16.1504 95.344 16.1504C93.0335 16.1504 91.5843 15.043 91.5022 13.0879H93.2522C93.3343 14.127 94.2093 14.6328 95.3304 14.6328C96.5061 14.6328 97.3128 14.0586 97.3128 13.2109C97.3128 12.4316 96.5882 12.1035 95.5218 11.8301L94.4007 11.543C92.7737 11.1191 91.762 10.2988 91.762 8.87695C91.762 7.12695 93.3206 5.96484 95.3987 5.96484C97.5042 5.96484 98.9261 7.1543 98.9534 8.82227H97.2444ZM99.5692 7.5918V6.10156H107.458V7.5918H104.409V16H102.632V7.5918H99.5692ZM110.07 6.10156V16H108.292V6.10156H110.07ZM118.027 9.4375C117.822 8.24805 116.865 7.56445 115.662 7.56445C114.035 7.56445 112.9 8.80859 112.9 11.0508C112.9 13.3203 114.049 14.5371 115.662 14.5371C116.838 14.5371 117.795 13.8809 118.027 12.7188H119.818C119.545 14.6191 117.986 16.1367 115.635 16.1367C113.023 16.1367 111.109 14.2363 111.109 11.0508C111.109 7.85156 113.051 5.96484 115.635 5.96484C117.822 5.96484 119.518 7.23633 119.818 9.4375H118.027ZM126.176 8.82227C126.094 7.97461 125.37 7.48242 124.303 7.48242C123.182 7.48242 122.499 8.0293 122.499 8.76758C122.499 9.60156 123.374 9.94336 124.194 10.1348L125.124 10.3809C126.6 10.7227 128.022 11.502 128.022 13.2246C128.022 14.9609 126.655 16.1504 124.276 16.1504C121.965 16.1504 120.516 15.043 120.434 13.0879H122.184C122.266 14.127 123.141 14.6328 124.262 14.6328C125.438 14.6328 126.245 14.0586 126.245 13.2109C126.245 12.4316 125.52 12.1035 124.454 11.8301L123.333 11.543C121.706 11.1191 120.694 10.2988 120.694 8.87695C120.694 7.12695 122.252 5.96484 124.331 5.96484C126.436 5.96484 127.858 7.1543 127.885 8.82227H126.176Z" fill="white"/>
</g>
<rect x="0.5" y="0.5" width="185" height="21" rx="2.5" stroke="#E0E4EA"/>
<defs>
<radialGradient id="paint0_angular_526_4622" cx="0" cy="0" r="1" gradientUnits="userSpaceOnUse" gradientTransform="translate(109.238 24.1154) rotate(-12.9389) scale(124.706 82.4741)">
<stop stop-color="#C5C8CD"/>
<stop offset="0.5" stop-color="#9DA1A7"/>
</radialGradient>
<radialGradient id="paint1_angular_526_4622" cx="0" cy="0" r="1" gradientUnits="userSpaceOnUse" gradientTransform="translate(109.238 24.1154) rotate(-12.9389) scale(124.706 82.4741)">
<stop stop-color="#819AEC"/>
<stop offset="0.5" stop-color="#4861B3"/>
</radialGradient>
<clipPath id="clip0_526_4622">
<rect width="186" height="22" rx="3" fill="white"/>
</clipPath>
</defs>
</svg>
