<svg width="106" height="20" viewBox="0 0 106 20" fill="none" xmlns="http://www.w3.org/2000/svg">
<g clip-path="url(#clip0_526_4644)">
<rect width="106" height="20" rx="3" fill="url(#paint0_angular_526_4644)"/>
<mask id="mask0_526_4644" style="mask-type:alpha" maskUnits="userSpaceOnUse" x="0" y="0" width="106" height="20">
<rect x="1.5" y="1.5" width="103" height="17" rx="1.5" fill="url(#paint1_angular_526_4644)"/>
<rect x="1.5" y="1.5" width="103" height="17" rx="1.5" stroke="#A2B7F9" stroke-width="3"/>
</mask>
<g mask="url(#mask0_526_4644)">
<rect x="-13" y="23.7939" width="18.0934" height="18.0934" transform="rotate(-45 -13 23.7939)" fill="#E0E4EA"/>
<rect x="96" y="0.793945" width="18.0934" height="18.0934" transform="rotate(-45 96 0.793945)" fill="#E0E4EA"/>
</g>
<path d="M25.8145 7.84766C25.7441 7.12109 25.123 6.69922 24.209 6.69922C23.248 6.69922 22.6621 7.16797 22.6621 7.80078C22.6621 8.51562 23.4121 8.80859 24.1152 8.97266L24.9121 9.18359C26.1777 9.47656 27.3965 10.1445 27.3965 11.6211C27.3965 13.1094 26.2246 14.1289 24.1855 14.1289C22.2051 14.1289 20.9629 13.1797 20.8926 11.5039H22.3926C22.4629 12.3945 23.2129 12.8281 24.1738 12.8281C25.1816 12.8281 25.873 12.3359 25.873 11.6094C25.873 10.9414 25.252 10.6602 24.3379 10.4258L23.377 10.1797C21.9824 9.81641 21.1152 9.11328 21.1152 7.89453C21.1152 6.39453 22.4512 5.39844 24.2324 5.39844C26.0371 5.39844 27.2559 6.41797 27.2793 7.84766H25.8145ZM28.2871 6.79297V5.51562H35.0488V6.79297H32.4355V14H30.9121V6.79297H28.2871ZM36.291 14H34.6621L37.6504 5.51562H39.5254L42.5254 14H40.8965L40.1934 11.9023H36.9941L36.291 14ZM37.4043 10.6719H39.7832L38.623 7.25H38.5527L37.4043 10.6719ZM42.127 6.79297V5.51562H48.8887V6.79297H46.2754V14H44.752V6.79297H42.127ZM51.6074 5.51562V14H50.084V5.51562H51.6074ZM57.8066 7.84766C57.7363 7.12109 57.1152 6.69922 56.2012 6.69922C55.2402 6.69922 54.6543 7.16797 54.6543 7.80078C54.6543 8.51562 55.4043 8.80859 56.1074 8.97266L56.9043 9.18359C58.1699 9.47656 59.3887 10.1445 59.3887 11.6211C59.3887 13.1094 58.2168 14.1289 56.1777 14.1289C54.1973 14.1289 52.9551 13.1797 52.8848 11.5039H54.3848C54.4551 12.3945 55.2051 12.8281 56.166 12.8281C57.1738 12.8281 57.8652 12.3359 57.8652 11.6094C57.8652 10.9414 57.2441 10.6602 56.3301 10.4258L55.3691 10.1797C53.9746 9.81641 53.1074 9.11328 53.1074 7.89453C53.1074 6.39453 54.4434 5.39844 56.2246 5.39844C58.0293 5.39844 59.248 6.41797 59.2715 7.84766H57.8066ZM60.2793 6.79297V5.51562H67.041V6.79297H64.4277V14H62.9043V6.79297H60.2793ZM69.7598 5.51562V14H68.2363V5.51562H69.7598ZM77.0605 8.375C76.8848 7.35547 76.0645 6.76953 75.0332 6.76953C73.6387 6.76953 72.666 7.83594 72.666 9.75781C72.666 11.7031 73.6504 12.7461 75.0332 12.7461C76.041 12.7461 76.8613 12.1836 77.0605 11.1875H78.5957C78.3613 12.8164 77.0254 14.1172 75.0098 14.1172C72.7715 14.1172 71.1309 12.4883 71.1309 9.75781C71.1309 7.01562 72.7949 5.39844 75.0098 5.39844C76.8848 5.39844 78.3379 6.48828 78.5957 8.375H77.0605ZM84.5254 7.84766C84.4551 7.12109 83.834 6.69922 82.9199 6.69922C81.959 6.69922 81.373 7.16797 81.373 7.80078C81.373 8.51562 82.123 8.80859 82.8262 8.97266L83.623 9.18359C84.8887 9.47656 86.1074 10.1445 86.1074 11.6211C86.1074 13.1094 84.9355 14.1289 82.8965 14.1289C80.916 14.1289 79.6738 13.1797 79.6035 11.5039H81.1035C81.1738 12.3945 81.9238 12.8281 82.8848 12.8281C83.8926 12.8281 84.584 12.3359 84.584 11.6094C84.584 10.9414 83.9629 10.6602 83.0488 10.4258L82.0879 10.1797C80.6934 9.81641 79.8262 9.11328 79.8262 7.89453C79.8262 6.39453 81.1621 5.39844 82.9434 5.39844C84.748 5.39844 85.9668 6.41797 85.9902 7.84766H84.5254Z" fill="white"/>
</g>
<rect x="0.5" y="0.5" width="105" height="19" rx="2.5" stroke="#E0E4EA"/>
<defs>
<radialGradient id="paint0_angular_526_4644" cx="0" cy="0" r="1" gradientUnits="userSpaceOnUse" gradientTransform="translate(62.254 21.9231) rotate(-20.1273) scale(73.7696 72.2317)">
<stop stop-color="#C5C8CD"/>
<stop offset="0.5" stop-color="#9DA1A7"/>
</radialGradient>
<radialGradient id="paint1_angular_526_4644" cx="0" cy="0" r="1" gradientUnits="userSpaceOnUse" gradientTransform="translate(62.254 21.9231) rotate(-20.1273) scale(73.7696 72.2317)">
<stop stop-color="#819AEC"/>
<stop offset="0.5" stop-color="#4861B3"/>
</radialGradient>
<clipPath id="clip0_526_4644">
<rect width="106" height="20" rx="3" fill="white"/>
</clipPath>
</defs>
</svg>
