<svg width="186" height="22" viewBox="0 0 186 22" fill="none" xmlns="http://www.w3.org/2000/svg">
<g clip-path="url(#clip0_522_10803)">
<rect width="186" height="22" rx="3" fill="url(#paint0_angular_522_10803)"/>
<mask id="mask0_522_10803" style="mask-type:alpha" maskUnits="userSpaceOnUse" x="0" y="0" width="186" height="22">
<rect x="1.5" y="1.5" width="183" height="19" rx="1.5" fill="url(#paint1_angular_522_10803)"/>
<rect x="1.5" y="1.5" width="183" height="19" rx="1.5" stroke="#A2B7F9" stroke-width="3"/>
</mask>
<g mask="url(#mask0_522_10803)">
<rect x="-13" y="23.7939" width="18.0934" height="18.0934" transform="rotate(-45 -13 23.7939)" fill="#A2B7F9"/>
<rect x="173" y="-1.20605" width="18.0934" height="18.0934" transform="rotate(-45 173 -1.20605)" fill="#A2B7F9"/>
</g>
<path d="M66.1086 16V6.10156H67.8859V14.4961H72.2609V16H66.1086ZM74.9002 6.10156V16H73.1228V6.10156H74.9002ZM77.4984 6.10156L80.0687 13.9082H80.178L82.762 6.10156H84.7171L81.2171 16H79.0296L75.5433 6.10156H77.4984ZM85.3329 16V6.10156H91.7723V7.5918H87.1102V10.2988H91.4305V11.7891H87.1102V14.4961H91.7997V16H85.3329ZM102.355 9.4375C102.15 8.24805 101.193 7.56445 99.9902 7.56445C98.3633 7.56445 97.2285 8.80859 97.2285 11.0508C97.2285 13.3203 98.377 14.5371 99.9902 14.5371C101.166 14.5371 102.123 13.8809 102.355 12.7188H104.146C103.873 14.6191 102.314 16.1367 99.9629 16.1367C97.3516 16.1367 95.4375 14.2363 95.4375 11.0508C95.4375 7.85156 97.3789 5.96484 99.9629 5.96484C102.15 5.96484 103.846 7.23633 104.146 9.4375H102.355ZM105.118 16V6.10156H111.557V7.5918H106.895V10.2988H111.215V11.7891H106.895V14.4961H111.585V16H105.118ZM120.841 6.10156V16H119.255L114.566 9.23242H114.484V16H112.706V6.10156H114.319L118.982 12.8691H119.077V6.10156H120.841ZM121.675 7.5918V6.10156H129.564V7.5918H126.515V16H124.738V7.5918H121.675ZM130.399 16V6.10156H136.838V7.5918H132.176V10.2988H136.496V11.7891H132.176V14.4961H136.865V16H130.399ZM137.987 16V6.10156H141.706C143.975 6.10156 145.192 7.37305 145.192 9.25977C145.192 10.6064 144.577 11.6045 143.415 12.0762L145.548 16H143.565L141.624 12.377H139.764V16H137.987ZM139.764 10.8867H141.432C142.772 10.8867 143.374 10.3125 143.374 9.25977C143.374 8.20703 142.772 7.5918 141.432 7.5918H139.764V10.8867Z" fill="white"/>
<path d="M51.0345 9.1646C49.9877 9.1646 49.14 9.98647 49.14 10.9994C49.14 12.0124 49.9886 12.8343 51.0345 12.8343C52.0804 12.8343 52.9289 12.0124 52.9289 10.9994C52.9289 9.98647 52.0804 9.1646 51.0345 9.1646Z" fill="white"/>
<path d="M56.6986 14.7012C56.5659 14.7012 56.4324 14.6657 56.3119 14.5913C55.9766 14.3841 55.8789 13.9529 56.0928 13.6282C56.6096 12.8436 56.8828 11.9346 56.8828 10.9994C56.8828 10.0643 56.6096 9.15445 56.0928 8.36979C55.8789 8.0451 55.9766 7.61388 56.3119 7.40672C56.6471 7.19956 57.0924 7.29426 57.3063 7.61895C57.9715 8.62768 58.3224 9.79706 58.3224 10.9986C58.3224 12.2001 57.9715 13.3695 57.3063 14.3782C57.1692 14.5862 56.9361 14.7004 56.6986 14.7004V14.7012Z" fill="white"/>
<path d="M59.0191 15.9991C58.8899 15.9991 58.759 15.9653 58.6411 15.8943C58.3032 15.6913 58.1985 15.2618 58.408 14.9346C59.1614 13.755 59.5604 12.3946 59.5604 10.9994C59.5604 9.60428 59.1623 8.2438 58.408 7.06427C58.1985 6.73705 58.3032 6.30667 58.6411 6.10458C58.979 5.90165 59.4233 6.00312 59.632 6.33034C60.5268 7.73056 61 9.3447 61 10.9994C61 12.6542 60.5268 14.2683 59.632 15.6685C59.4958 15.8816 59.2601 15.9991 59.0191 15.9991Z" fill="white"/>
<path d="M54.3956 13.3737C54.2568 13.3737 54.1171 13.3348 53.9931 13.2545C53.664 13.0389 53.5767 12.6051 53.7993 12.2863C54.0647 11.9058 54.2044 11.4611 54.2044 11.0003C54.2044 10.5395 54.0586 10.0769 53.7836 9.69222C53.5575 9.37598 53.6387 8.94138 53.9652 8.72154C54.2917 8.50254 54.7404 8.58118 54.9666 8.89741C55.4092 9.51719 55.6432 10.2435 55.6432 10.9994C55.6432 11.7553 55.4179 12.4546 54.991 13.0659C54.8522 13.2655 54.6252 13.3729 54.3939 13.3729L54.3956 13.3737Z" fill="white"/>
<path d="M45.3014 14.7012C45.0639 14.7012 44.8308 14.5871 44.6937 14.3791C44.0285 13.3703 43.6776 12.2018 43.6776 10.9994C43.6776 9.79706 44.0294 8.62853 44.6937 7.61979C44.9076 7.29511 45.3529 7.20041 45.6881 7.40756C46.0234 7.61472 46.122 8.04595 45.9072 8.37064C45.3904 9.1553 45.1172 10.0643 45.1172 11.0003C45.1172 11.9363 45.3904 12.8452 45.9072 13.6291C46.1211 13.9537 46.0225 14.385 45.6881 14.5921C45.5676 14.6665 45.4341 14.7021 45.3014 14.7021V14.7012Z" fill="white"/>
<path d="M42.9809 15.9992C42.7399 15.9992 42.5042 15.8816 42.368 15.6685C41.4732 14.2683 41 12.6542 41 11.0003C41 9.34643 41.4732 7.73145 42.368 6.33123C42.5775 6.00316 43.021 5.90254 43.3589 6.10547C43.6968 6.3084 43.8015 6.73793 43.592 7.06516C42.8386 8.24469 42.4396 9.60517 42.4396 11.0003C42.4396 12.3955 42.8377 13.7559 43.592 14.9355C43.8015 15.2627 43.6968 15.6931 43.3589 15.8952C43.241 15.9662 43.1101 16 42.9809 16V15.9992Z" fill="white"/>
<path d="M47.6044 13.3737C47.373 13.3737 47.1461 13.2663 47.0072 13.0668C46.5803 12.4554 46.3551 11.7401 46.3551 11.0003C46.3551 10.2604 46.5891 9.51804 47.0317 8.89825C47.2578 8.58202 47.7065 8.50254 48.033 8.72238C48.3596 8.94138 48.4416 9.37598 48.2146 9.69306C47.9396 10.0778 47.7938 10.5301 47.7938 11.0011C47.7938 11.4721 47.9344 11.9067 48.1989 12.2872C48.4215 12.606 48.3351 13.0397 48.0051 13.2553C47.8811 13.3365 47.7415 13.3746 47.6026 13.3746L47.6044 13.3737Z" fill="white"/>
</g>
<rect x="0.5" y="0.5" width="185" height="21" rx="2.5" stroke="#A2B7F9"/>
<defs>
<radialGradient id="paint0_angular_522_10803" cx="0" cy="0" r="1" gradientUnits="userSpaceOnUse" gradientTransform="translate(109.238 24.1154) rotate(-12.9389) scale(124.706 82.4741)">
<stop stop-color="#819AEC"/>
<stop offset="0.5" stop-color="#4861B3"/>
</radialGradient>
<radialGradient id="paint1_angular_522_10803" cx="0" cy="0" r="1" gradientUnits="userSpaceOnUse" gradientTransform="translate(109.238 24.1154) rotate(-12.9389) scale(124.706 82.4741)">
<stop stop-color="#819AEC"/>
<stop offset="0.5" stop-color="#4861B3"/>
</radialGradient>
<clipPath id="clip0_522_10803">
<rect width="186" height="22" rx="3" fill="white"/>
</clipPath>
</defs>
</svg>
