<svg width="64" height="19" viewBox="0 0 64 19" fill="none" xmlns="http://www.w3.org/2000/svg">
<g clip-path="url(#clip0_670_4603)">
<rect y="0.5" width="64" height="18" rx="3" fill="url(#paint0_angular_670_4603)"/>
<mask id="mask0_670_4603" style="mask-type:alpha" maskUnits="userSpaceOnUse" x="0" y="0" width="64" height="19">
<rect x="1.5" y="2" width="61" height="15" rx="1.5" fill="url(#paint1_angular_670_4603)"/>
<rect x="1.5" y="2" width="61" height="15" rx="1.5" stroke="#A2B7F9" stroke-width="3"/>
</mask>
<g mask="url(#mask0_670_4603)">
<rect x="-13" y="22.2939" width="18.0934" height="18.0934" transform="rotate(-45 -13 22.2939)" fill="#A2B7F9"/>
<rect x="51" y="-3.70605" width="18.0934" height="18.0934" transform="rotate(-45 51 -3.70605)" fill="#A2B7F9"/>
</g>
<path d="M3.79883 5.01562H5.67383L8.19336 11.1797H8.29883L10.8184 5.01562H12.6934V13.5H11.2285V7.66406H11.1465L8.79102 13.4766H7.70117L5.3457 7.64062H5.27539V13.5H3.79883V5.01562ZM15.3418 13.5H13.7129L16.7012 5.01562H18.5762L21.5762 13.5H19.9473L19.2441 11.4023H16.0449L15.3418 13.5ZM16.4551 10.1719H18.834L17.6738 6.75H17.6035L16.4551 10.1719ZM21.1777 6.29297V5.01562H27.9395V6.29297H25.3262V13.5H23.8027V6.29297H21.1777ZM34.4785 7.875C34.3027 6.85547 33.4824 6.26953 32.4512 6.26953C31.0566 6.26953 30.084 7.33594 30.084 9.25781C30.084 11.2031 31.0684 12.2461 32.4512 12.2461C33.459 12.2461 34.2793 11.6836 34.4785 10.6875H36.0137C35.7793 12.3164 34.4434 13.6172 32.4277 13.6172C30.1895 13.6172 28.5488 11.9883 28.5488 9.25781C28.5488 6.51562 30.2129 4.89844 32.4277 4.89844C34.3027 4.89844 35.7559 5.98828 36.0137 7.875H34.4785ZM37.3262 13.5V5.01562H38.8496V8.61328H42.7988V5.01562H44.334V13.5H42.7988V9.89062H38.8496V13.5H37.3262ZM51.2598 5.01562H52.7949V10.5586C52.7949 12.375 51.4121 13.6289 49.3496 13.6289C47.2754 13.6289 45.9043 12.375 45.9043 10.5586V5.01562H47.4277V10.4297C47.4277 11.4961 48.1777 12.2695 49.3496 12.2695C50.5215 12.2695 51.2598 11.4961 51.2598 10.4297V5.01562ZM54.3652 13.5V5.01562H57.5527C59.498 5.01562 60.541 6.19922 60.541 7.82812C60.541 9.45703 59.4863 10.6289 57.5293 10.6289H55.8887V13.5H54.3652ZM55.8887 9.375H57.3184C58.4668 9.375 58.9824 8.73047 58.9824 7.82812C58.9824 6.91406 58.4668 6.29297 57.3184 6.29297H55.8887V9.375Z" fill="white"/>
</g>
<rect x="0.5" y="1" width="63" height="17" rx="2.5" stroke="#A2B7F9"/>
<defs>
<radialGradient id="paint0_angular_670_4603" cx="0" cy="0" r="1" gradientUnits="userSpaceOnUse" gradientTransform="translate(37.5873 20.2308) rotate(-28.6476) scale(47.6536 60.7612)">
<stop stop-color="#819AEC"/>
<stop offset="0.5" stop-color="#4861B3"/>
</radialGradient>
<radialGradient id="paint1_angular_670_4603" cx="0" cy="0" r="1" gradientUnits="userSpaceOnUse" gradientTransform="translate(37.5873 20.2308) rotate(-28.6476) scale(47.6536 60.7612)">
<stop stop-color="#819AEC"/>
<stop offset="0.5" stop-color="#4861B3"/>
</radialGradient>
<clipPath id="clip0_670_4603">
<rect y="0.5" width="64" height="18" rx="3" fill="white"/>
</clipPath>
</defs>
</svg>
