<svg width="95" height="68" viewBox="0 0 95 68" fill="none" xmlns="http://www.w3.org/2000/svg">
<path d="M95 2.27662C95 2.18954 95 2.10245 94.9751 2.01537C94.9751 1.94072 94.9502 1.87852 94.9253 1.80388C94.9004 1.71679 94.8755 1.64215 94.8506 1.55507C94.8256 1.49287 94.8007 1.41822 94.7634 1.35602C94.726 1.28138 94.6886 1.20673 94.6388 1.13209C94.6015 1.06989 94.5641 1.00768 94.5143 0.957922C94.4769 0.9206 94.4645 0.870838 94.4271 0.821076C94.4022 0.796195 94.3773 0.771314 94.3524 0.746432C94.315 0.69667 94.2652 0.659349 94.2154 0.622027C94.1406 0.559824 94.0659 0.485181 93.9912 0.435419C93.9538 0.410538 93.9165 0.385657 93.8791 0.360776C93.7795 0.298573 93.6798 0.248811 93.5802 0.199049C93.5553 0.186608 93.5179 0.174168 93.493 0.161727C93.3685 0.111965 93.2439 0.0746433 93.1194 0.0497622C93.1069 0.0497622 93.082 0.0497622 93.0696 0.0497622C92.9201 0.0248811 92.7707 0.0124405 92.6212 0H2.41381C2.41381 0 2.41381 0 2.40136 0C1.72882 0 1.05628 0.273692 0.570556 0.821076C0.0972883 1.3809 -0.0646192 2.06513 0.0225618 2.72448V65.599C0.0225618 66.9177 1.09364 67.9876 2.41381 67.9876C3.73398 67.9876 4.80506 66.9177 4.80506 65.599V62.3147L13.5107 58.1595C13.5107 58.1595 13.5481 58.1471 13.5605 58.1347L20.5848 54.7881V56.0073C20.5848 57.326 21.6559 58.4083 22.9885 58.4083C24.3211 58.4083 25.3922 57.3385 25.3922 56.0073V53.5565H69.593V56.0073C69.593 57.326 70.6641 58.4083 71.9967 58.4083C73.3293 58.4083 74.4004 57.3385 74.4004 56.0073V54.7757L81.325 58.0849C81.3998 58.1471 81.487 58.1844 81.5866 58.2093L90.2175 62.3271V65.6114C90.2175 66.9301 91.2886 68 92.6087 68C93.9289 68 95 66.9301 95 65.6114V2.40102C95 2.40102 95 2.31394 94.9875 2.27662H95ZM24.1966 4.78961L27.2604 10.9352H15.9891L8.85275 4.78961H24.1966ZM86.1449 4.78961L78.9961 10.9352H68.8457L71.9095 4.78961H86.1449ZM67.1768 10.9352H55.4697L56.4909 4.78961H70.2406L67.1768 10.9352ZM69.6054 27.5185H64.0258V20.8255H70.4523C69.9168 22.4676 69.6054 24.2839 69.6054 26.1625V27.506V27.5185ZM43.5757 35.7044V29.0113H52.3062V35.7044H43.5757ZM52.3062 37.1848V43.8778H43.5757V37.1848H52.3062ZM62.5313 27.5185H53.8008V20.8255H62.5313V27.5185ZM43.5757 20.8255H52.3062V27.5185H43.5757V20.8255ZM52.5553 19.3326H43.5632L42.4174 12.4157H53.7136L52.5678 19.3326H52.5553ZM42.0812 27.5185H33.3506V20.8255H42.0812V27.5185ZM31.8561 27.5185H25.4047V26.1749C25.4047 24.2839 25.1058 22.4801 24.5578 20.8379H31.8561V27.5309V27.5185ZM33.1264 19.3326L29.6765 12.4157H40.8855L42.0313 19.3326H33.114H33.1264ZM31.4575 19.3326H23.9724C23.2376 17.7029 22.2413 16.2847 21.0207 15.2397L17.7452 12.4281H28.0201L31.47 19.345L31.4575 19.3326ZM20.5973 35.2192L13.9715 33.9502V24.3586L20.5973 27.8419V35.2316V35.2192ZM25.3922 29.0113H31.8436V35.7044H25.3922V29.0113ZM33.3506 29.0113H42.0812V35.7044H33.3506V29.0113ZM53.8008 29.0113H62.5313V35.7044H53.8008V29.0113ZM64.0258 29.0113H69.6054V35.7044H64.0258V29.0113ZM62.9797 19.3326H54.0623L55.2081 12.4157H66.4171L62.9672 19.3326H62.9797ZM53.9502 10.9352H42.1683L41.1471 4.78961H54.9839L53.9627 10.9352H53.9502ZM40.6489 10.9352H28.9417L25.8779 4.78961H39.6276L40.6489 10.9352ZM17.8822 18.8847C19.8749 20.5891 20.5848 23.7614 20.5848 26.1625L13.9591 22.6791V15.5134L17.8822 18.8847ZM13.9591 35.4804L20.5848 36.7494V44.2261L13.9591 45.1716V35.4804ZM25.3922 37.1848H31.8436V43.8778H25.3922V37.1848ZM33.3506 37.1848H42.0812V43.8778H33.3506V37.1848ZM42.0812 45.3707V52.0637H33.3506V45.3707H42.0812ZM43.5757 45.3707H52.3062V52.0637H43.5757V45.3707ZM53.8008 45.3707H62.5313V52.0637H53.8008V45.3707ZM53.8008 43.8778V37.1848H62.5313V43.8778H53.8008ZM64.0258 37.1848H69.6054V43.8778H64.0258V37.1848ZM71.0252 19.3326H64.6486L68.0984 12.4157H77.2524L73.9769 15.2272C72.7439 16.2847 71.76 17.6905 71.0128 19.3202L71.0252 19.3326ZM90.23 32.2086L82.5331 33.6765V23.5873L90.23 19.5441V32.1961V32.2086ZM82.5207 35.1943L90.2175 33.7263V46.4779L82.5207 45.3707V35.1943ZM90.23 17.8646L82.5331 21.9078V14.2195L90.23 7.60117V17.8646ZM12.4645 57.0026L4.79261 60.6601V47.9832L12.4645 46.8884V57.0026ZM12.4645 45.3831L4.79261 46.4779V33.7263L12.4645 35.1943V45.3831ZM12.4645 33.6765L4.79261 32.2086V19.5565L12.4645 23.5748V33.6641V33.6765ZM4.80506 17.8646V7.63849L12.477 14.232V21.8954L4.80506 17.8771V17.8646ZM13.9591 56.2935V46.6769L20.5848 45.7314V53.1336L13.9591 56.2935ZM25.3922 45.3707H31.8436V52.0637H25.3922V45.3707ZM64.0258 52.0637V45.3707H69.6054V52.0637H64.0258ZM81.0261 56.281L74.4004 53.1211V45.7314L81.0261 46.6769V56.281ZM81.0261 45.1592L74.4004 44.2137V36.7494L81.0261 35.4804V45.1592ZM81.0261 33.9627L74.4004 35.2316V27.8544L81.0261 24.371V33.9627ZM74.4004 26.1749C74.4004 23.7739 75.1103 20.5891 77.103 18.8847L81.0261 15.5134V22.704L74.4004 26.1873V26.1749ZM82.5207 56.9901V46.8884L90.2175 47.9832V60.6601L82.5207 56.9901Z" fill="#0C4AA4"/>
</svg>
