<svg width="31" height="30" viewBox="0 0 31 30" fill="none" xmlns="http://www.w3.org/2000/svg">
<path d="M22.2177 1.59344C14.8139 -2.11178 5.79323 0.861396 2.09136 8.26582C-1.61052 15.6703 1.36238 24.6918 8.76613 28.394C16.2239 32.1502 25.1906 29.072 28.8954 21.7186C32.6483 14.2602 29.5734 5.29265 22.2207 1.59044L22.2177 1.59344ZM29.0994 16.3513C27.6385 12.8051 24.8246 9.83191 21.0177 8.21482L19.5058 7.53678C18.5158 7.06875 17.6278 6.44172 16.8989 5.65867C20.0787 3.99058 22.6857 3.46855 22.7397 3.46855H22.7907C27.2755 6.23171 29.6214 11.29 29.0994 16.3483V16.3513ZM21.1227 2.52949C19.9738 2.89551 18.0988 3.51955 16.0649 4.61461C15.4379 3.62456 15.0209 2.52949 14.8649 1.32942C17.0039 1.22442 19.1398 1.59044 21.1227 2.52949ZM13.563 1.43443C13.719 2.84151 14.1869 4.14659 14.9699 5.24165C13.458 6.1267 12.051 7.17076 10.8001 8.31983C8.29815 7.17376 6.21022 6.44172 5.06426 6.1297C7.25418 3.52255 10.3321 1.90546 13.563 1.43743V1.43443ZM20.0787 27.875C20.0247 27.875 19.9738 27.824 19.9228 27.824C19.9228 27.824 17.4208 27.5629 14.6039 25.4778C12.675 24.0167 11.1091 22.0366 10.0681 19.7415L9.39011 18.2294C8.86813 17.0293 8.08516 15.9343 7.09519 15.1002C8.08516 13.1711 9.33611 11.449 10.9531 9.88592C17.4718 13.0661 23.2586 18.1244 24.5096 25.2708C23.2046 26.4169 21.6927 27.3049 20.0787 27.878V27.875ZM4.17629 7.27577C5.01026 7.48578 7.14919 8.16082 9.7561 9.30988C8.29515 10.822 7.09819 12.4901 6.10522 14.3172C4.85427 13.4831 3.44731 12.9611 1.93536 12.8051C2.30135 10.825 3.03033 8.94686 4.17629 7.27877V7.27577ZM1.83037 14.1072C3.18632 14.2632 4.48828 14.7342 5.53224 15.4632C4.64727 17.4434 4.02029 19.5825 3.7083 21.9286C2.35235 19.6335 1.67437 16.8703 1.83037 14.1072ZM4.85426 23.5997V23.4947C5.06426 20.8876 5.63724 18.4874 6.57621 16.3513C7.25418 17.0293 7.82716 17.8634 8.24415 18.8024L8.92213 20.3145C10.0171 22.8167 11.739 24.9558 13.875 26.5729C15.1799 27.5629 16.4819 28.19 17.4718 28.553C12.621 29.231 7.82416 27.3019 4.85426 23.5997ZM25.6586 24.1727C24.0926 17.1853 18.4618 12.2321 12.048 8.94386C13.143 8.00481 14.3939 7.06575 15.7499 6.28271C16.6349 7.32677 17.7298 8.10681 19.0348 8.68285L20.5467 9.36089C22.8927 10.4049 24.9266 12.022 26.3875 14.0532C28.0555 16.3993 28.5265 18.5384 28.5775 19.0604C27.9505 20.9386 26.9605 22.7117 25.6586 24.1697V24.1727Z" fill="white"/>
</svg>
