<svg width="31" height="30" viewBox="0 0 31 30" fill="none" xmlns="http://www.w3.org/2000/svg">
<path d="M15.5 0C7.265 0 0.5 6.708 0.5 15C0.5 23.292 7.208 30 15.5 30C23.792 30 30.5 23.292 30.5 15C30.5 6.708 23.792 0 15.5 0ZM13.862 28.527C11.408 28.254 9.116 27.273 7.262 25.8C8.081 25.473 9.497 24.762 10.916 23.673C13.808 21.492 15.608 18.654 16.151 15.438C18.059 14.73 20.132 14.565 22.205 15.057C22.04 15.876 21.659 17.565 20.84 19.53C19.748 22.149 17.675 25.803 13.859 28.53L13.862 28.527ZM15.608 14.235C14.027 12.927 12.881 11.235 12.227 9.162C13.046 8.889 14.681 8.343 16.808 8.07C19.589 7.743 23.735 7.743 28.043 9.651C29.024 11.943 29.351 14.451 29.024 16.797C28.262 16.251 27.005 15.378 25.478 14.724C22.04 13.251 18.659 13.032 15.605 14.232L15.608 14.235ZM27.065 7.8C23.03 6.381 19.211 6.381 16.592 6.765C14.411 7.038 12.773 7.527 11.846 7.854C11.192 4.965 11.519 2.562 11.573 1.962C17.465 0.162 23.792 2.562 27.065 7.797V7.8ZM10.208 2.4C10.1 3.654 9.989 6.108 10.754 8.892C11.465 11.511 12.827 13.692 14.789 15.273C14.462 17.346 13.589 19.146 12.116 20.781C11.462 20.235 10.151 19.035 8.843 17.289C7.151 15.054 5.078 11.454 4.589 6.816C6.008 4.908 7.97 3.381 10.208 2.397V2.4ZM3.446 8.565C4.208 12.765 6.173 16.038 7.754 18.165C9.119 19.965 10.427 21.165 11.135 21.765C10.808 22.038 10.481 22.365 10.1 22.638C8.192 24.111 6.335 24.765 6.065 24.873C1.538 20.508 0.665 13.854 3.446 8.565ZM15.935 28.635C19.208 25.854 21.062 22.527 22.1 20.073C22.919 18.054 23.354 16.365 23.519 15.435C23.954 15.6 24.392 15.762 24.884 15.927C26.849 16.8 28.265 17.835 28.757 18.273C27.284 24.108 22.103 28.419 15.938 28.635H15.935Z" fill="white"/>
</svg>
