<svg width="31" height="30" viewBox="0 0 31 30" fill="none" xmlns="http://www.w3.org/2000/svg">
<path d="M30.5296 16.3891L28.9306 8.19012C28.3666 5.29812 20.9296 5.17512 13.8736 6.54912C6.81759 7.92612 -0.031409 10.8301 0.532591 13.7251L2.13159 21.9241C2.47359 23.6791 5.34459 24.4141 9.12759 24.4141C11.5786 24.4141 14.4136 24.1051 17.1916 23.5651C24.2476 22.1911 31.0966 19.2841 30.5326 16.3921L30.5296 16.3891ZM28.0246 10.5901C27.7126 11.1961 26.7976 12.0241 24.9346 12.9541C22.5496 14.1421 19.2676 15.1801 15.6916 15.8761C12.1156 16.5721 8.68359 16.8451 6.02559 16.6381C3.94959 16.4761 2.79159 16.0531 2.27559 15.6091L2.24259 15.4351C3.50559 15.9721 5.36259 16.2181 7.53159 16.2181C9.98259 16.2181 12.8176 15.9091 15.5956 15.3691C20.8186 14.3521 25.9216 12.4951 27.9946 10.4281L28.0276 10.5931L28.0246 10.5901ZM14.1316 7.87512C17.1376 7.29012 19.7776 7.05312 21.9076 7.05312C25.3486 7.05312 27.4576 7.67412 27.6076 8.45112C27.8536 9.70812 23.1916 12.5101 15.3346 14.0401C7.47459 15.5701 2.10459 14.7241 1.85859 13.4671C1.61259 12.2101 6.27459 9.40812 14.1316 7.87812V7.87512ZM16.9306 22.2391C9.07059 23.7691 3.70059 22.9231 3.45459 21.6661L2.50659 16.7971C3.32859 17.1691 4.48359 17.4181 5.95659 17.5351C6.55959 17.5831 7.19859 17.6041 7.87059 17.6041C10.2466 17.6041 13.0156 17.3131 15.8656 16.7581C19.5196 16.0471 22.8856 14.9791 25.3396 13.7581C26.6596 13.1011 27.6376 12.4351 28.2586 11.7811L29.2066 16.6501C29.4526 17.9071 24.7906 20.7091 16.9336 22.2391H16.9306Z" fill="white"/>
<path d="M8.79459 13.6351C8.92659 13.6351 9.05859 13.6381 9.19659 13.6381C10.9606 13.6381 13.1566 13.3981 15.4426 12.9511C18.7456 12.3061 24.8926 10.5841 24.5176 8.66412C24.3616 7.87212 23.2606 7.46412 21.1456 7.41612C19.3216 7.37412 16.9606 7.61712 14.4976 8.09712C12.0346 8.57712 9.75459 9.24012 8.08059 9.96312C6.13659 10.8001 5.26959 11.5921 5.42259 12.3871C5.57559 13.1791 6.67959 13.5871 8.79459 13.6351ZM8.43459 10.7911C10.0516 10.0921 12.2656 9.45012 14.6686 8.98212C16.8976 8.54712 19.0336 8.31312 20.7406 8.31312C20.8726 8.31312 21.0016 8.31312 21.1276 8.31612C23.1166 8.36112 23.6176 8.74512 23.6356 8.83512C23.7256 9.29712 20.9896 10.9531 15.2716 12.0661C12.8716 12.5341 10.5766 12.7681 8.81559 12.7321C6.82659 12.6871 6.32559 12.3031 6.30759 12.2131C6.28959 12.1201 6.61059 11.5771 8.43759 10.7881L8.43459 10.7911Z" fill="white"/>
</svg>
