<svg width="31" height="30" viewBox="0 0 31 30" fill="none" xmlns="http://www.w3.org/2000/svg">
<path d="M15.5 0C7.217 0 0.5 6.717 0.5 15C0.5 23.283 7.217 30 15.5 30C23.783 30 30.5 23.283 30.5 15C30.5 6.717 23.783 0 15.5 0ZM1.85 15C1.85 7.473 7.973 1.35 15.5 1.35C23.027 1.35 28.787 7.119 29.132 14.34C28.133 12.18 26.24 9.408 22.688 7.374C19.322 5.445 16.589 5.814 14.888 6.462C12.278 7.458 10.727 9.573 10.361 10.671L10.283 10.899C9.584 12.966 8.279 16.809 13.568 21.267C15.368 22.785 17.159 23.943 18.596 24.876C19.88 25.707 21.479 26.742 21.458 27.156C21.458 27.183 21.425 27.246 21.326 27.336C19.559 28.173 17.582 28.644 15.5 28.644C7.973 28.644 1.85 22.521 1.85 14.994V15ZM22.568 26.673C22.241 25.809 21.044 25.032 19.25 23.871C17.84 22.959 16.085 21.822 14.342 20.352C9.68 16.422 10.769 13.209 11.42 11.286L11.498 11.052C11.816 10.095 13.211 8.388 15.314 7.584C17.435 6.774 19.715 7.053 22.091 8.415C27.194 11.337 28.604 16.011 28.925 17.436C28.217 21.345 25.844 24.681 22.565 26.673H22.568Z" fill="white"/>
</svg>
