<svg width="31" height="30" viewBox="0 0 31 30" fill="none" xmlns="http://www.w3.org/2000/svg">
<path d="M15.5 0C7.217 0 0.5 6.717 0.5 15C0.5 23.283 7.217 30 15.5 30C23.783 30 30.5 23.283 30.5 15C30.5 6.717 23.783 0 15.5 0ZM29.078 13.599C29.051 13.704 29.06 13.818 29.102 13.923C29.117 14.127 29.129 14.334 29.138 14.541C28.766 14.58 28.391 14.61 28.013 14.619C27.881 14.334 27.746 14.019 27.602 13.659C27.491 13.386 27.182 13.251 26.906 13.362C26.633 13.473 26.498 13.785 26.609 14.058C26.687 14.256 26.765 14.439 26.84 14.613C26.351 14.589 25.871 14.541 25.394 14.472C25.304 14.133 25.223 13.794 25.151 13.458C25.091 13.17 24.809 12.984 24.515 13.044C24.227 13.104 24.041 13.389 24.101 13.68C24.143 13.872 24.185 14.067 24.233 14.262C23.759 14.154 23.291 14.028 22.832 13.878C22.799 13.491 22.778 13.158 22.769 12.84C22.76 12.543 22.514 12.297 22.22 12.318C21.923 12.327 21.692 12.573 21.698 12.867C21.704 13.059 21.713 13.254 21.725 13.461C21.278 13.275 20.837 13.068 20.411 12.84C20.438 12.525 20.477 12.183 20.528 11.808C20.567 11.514 20.363 11.244 20.069 11.205C19.775 11.163 19.505 11.37 19.466 11.664C19.439 11.871 19.415 12.066 19.394 12.252C18.983 11.994 18.587 11.715 18.203 11.418C18.29 11.079 18.383 10.743 18.482 10.416C18.569 10.134 18.41 9.834 18.128 9.747C17.846 9.66 17.546 9.819 17.459 10.101C17.402 10.287 17.348 10.476 17.294 10.665C16.931 10.341 16.58 10.005 16.247 9.651C16.394 9.312 16.538 9.003 16.685 8.709C16.817 8.445 16.712 8.124 16.448 7.989C16.184 7.857 15.863 7.962 15.728 8.226C15.641 8.397 15.557 8.574 15.47 8.76C15.164 8.385 14.873 7.992 14.597 7.59C14.768 7.326 14.957 7.041 15.179 6.726C15.35 6.483 15.29 6.15 15.05 5.979C14.807 5.808 14.474 5.868 14.303 6.108C14.183 6.279 14.072 6.441 13.967 6.597C13.724 6.177 13.496 5.745 13.289 5.304C13.52 5.043 13.757 4.782 13.997 4.536C14.201 4.323 14.198 3.984 13.985 3.78C13.772 3.573 13.433 3.579 13.229 3.792C13.094 3.933 12.959 4.077 12.824 4.221C12.647 3.768 12.485 3.309 12.347 2.838C12.638 2.595 12.905 2.382 13.166 2.187C13.376 2.028 13.436 1.743 13.319 1.515C14.03 1.401 14.759 1.338 15.503 1.338C22.556 1.338 28.379 6.717 29.081 13.587L29.078 13.599ZM1.85 15C1.85 14.889 1.856 14.778 1.859 14.667C1.925 14.667 1.988 14.667 2.054 14.673C1.985 14.802 1.919 14.931 1.853 15.06C1.853 15.042 1.853 15.021 1.853 15.003L1.85 15ZM1.937 13.467C1.952 13.344 1.967 13.221 1.985 13.101C2.039 13.224 2.093 13.35 2.144 13.473C2.075 13.473 2.006 13.473 1.94 13.467H1.937ZM1.877 15.813C1.916 15.855 1.961 15.891 2.015 15.918C2.093 15.957 2.174 15.975 2.255 15.975C2.45 15.975 2.639 15.867 2.732 15.681C2.888 15.375 3.056 15.066 3.227 14.763C3.71 14.82 4.19 14.895 4.658 14.997C4.538 15.153 4.415 15.312 4.292 15.474C4.115 15.711 4.166 16.047 4.403 16.224C4.499 16.296 4.61 16.329 4.721 16.329C4.883 16.329 5.045 16.254 5.15 16.113C5.366 15.822 5.582 15.552 5.792 15.294C6.257 15.432 6.713 15.594 7.16 15.774C7.01 15.909 6.866 16.044 6.722 16.179C6.509 16.383 6.503 16.722 6.707 16.935C6.812 17.046 6.953 17.1 7.094 17.1C7.235 17.1 7.361 17.049 7.466 16.95C7.712 16.713 7.97 16.485 8.24 16.257C8.675 16.473 9.095 16.71 9.506 16.965C9.338 17.07 9.176 17.175 9.014 17.283C8.768 17.448 8.702 17.778 8.864 18.024C8.966 18.18 9.137 18.264 9.311 18.264C9.413 18.264 9.515 18.234 9.608 18.174C9.893 17.985 10.187 17.802 10.487 17.622C10.88 17.907 11.258 18.21 11.624 18.528C11.45 18.6 11.27 18.681 11.081 18.765C10.811 18.885 10.691 19.203 10.811 19.473C10.901 19.671 11.096 19.788 11.3 19.788C11.375 19.788 11.447 19.773 11.519 19.74C11.87 19.581 12.185 19.449 12.476 19.335C12.818 19.68 13.145 20.04 13.454 20.415C13.256 20.463 13.064 20.511 12.881 20.565C12.596 20.643 12.428 20.94 12.509 21.225C12.575 21.462 12.791 21.618 13.025 21.618C13.073 21.618 13.121 21.612 13.169 21.597C13.481 21.51 13.808 21.429 14.177 21.351C14.462 21.747 14.729 22.161 14.978 22.584C14.78 22.599 14.582 22.611 14.39 22.632C14.096 22.662 13.883 22.926 13.913 23.22C13.943 23.496 14.174 23.7 14.444 23.7C14.462 23.7 14.48 23.7 14.501 23.7C14.84 23.664 15.191 23.637 15.542 23.616C15.761 24.051 15.962 24.492 16.145 24.948C15.953 24.933 15.758 24.921 15.551 24.912C15.26 24.906 15.005 25.125 14.99 25.422C14.975 25.716 15.203 25.968 15.5 25.983C15.875 26.001 16.217 26.025 16.544 26.055C16.694 26.517 16.826 26.988 16.937 27.468C16.745 27.426 16.553 27.381 16.352 27.342C16.064 27.285 15.779 27.471 15.722 27.762C15.665 28.053 15.851 28.335 16.142 28.392C16.427 28.449 16.694 28.512 16.955 28.575C16.475 28.626 15.989 28.653 15.497 28.653C8.243 28.653 2.297 22.965 1.874 15.816L1.877 15.813ZM18.443 28.326C18.704 28.131 18.971 27.927 19.247 27.699C19.475 27.513 19.511 27.174 19.322 26.946C19.136 26.718 18.797 26.682 18.569 26.871C18.413 26.997 18.263 27.117 18.116 27.234C17.993 26.7 17.849 26.178 17.681 25.662C17.927 25.413 18.185 25.143 18.467 24.828C18.665 24.609 18.65 24.27 18.431 24.072C18.212 23.874 17.873 23.889 17.675 24.108C17.537 24.261 17.405 24.402 17.279 24.537C17.075 24.027 16.85 23.532 16.607 23.046C16.832 22.737 17.051 22.422 17.261 22.104C17.423 21.858 17.354 21.525 17.108 21.363C16.862 21.201 16.529 21.27 16.367 21.516C16.259 21.678 16.145 21.837 16.034 21.996C15.758 21.528 15.461 21.072 15.146 20.634C15.338 20.259 15.503 19.914 15.644 19.593C15.764 19.323 15.641 19.005 15.368 18.888C15.098 18.771 14.78 18.891 14.663 19.164C14.588 19.335 14.507 19.512 14.417 19.695C14.069 19.272 13.703 18.87 13.322 18.483C13.454 18.072 13.562 17.685 13.646 17.376C13.724 17.091 13.556 16.797 13.271 16.719C12.983 16.641 12.692 16.809 12.614 17.094C12.569 17.262 12.515 17.454 12.455 17.661C12.044 17.298 11.615 16.956 11.174 16.635C11.231 16.257 11.279 15.873 11.318 15.492C11.348 15.198 11.132 14.934 10.838 14.904C10.544 14.874 10.28 15.09 10.25 15.384C10.229 15.579 10.202 15.771 10.175 15.966C9.713 15.678 9.236 15.411 8.747 15.168C8.741 14.772 8.726 14.385 8.696 14.016C8.672 13.722 8.411 13.503 8.12 13.524C7.826 13.548 7.604 13.806 7.628 14.1C7.643 14.289 7.655 14.481 7.664 14.679C7.157 14.472 6.641 14.289 6.113 14.133C6.044 13.779 5.96 13.41 5.861 13.011C5.789 12.723 5.498 12.549 5.213 12.621C4.925 12.693 4.751 12.984 4.823 13.269C4.871 13.464 4.916 13.65 4.955 13.83C4.421 13.713 3.881 13.626 3.329 13.563C3.191 13.209 3.05 12.852 2.894 12.504C2.774 12.234 2.459 12.111 2.189 12.231C2.165 12.24 2.147 12.255 2.126 12.267C2.996 7.998 5.87 4.446 9.716 2.64C9.785 2.775 9.908 2.883 10.067 2.922C10.412 3.006 10.781 3.084 11.186 3.162C11.342 3.684 11.519 4.197 11.717 4.698C11.522 4.686 11.33 4.68 11.135 4.665C10.844 4.641 10.583 4.86 10.559 5.154C10.535 5.448 10.754 5.706 11.048 5.73C11.429 5.76 11.813 5.781 12.194 5.796C12.428 6.291 12.683 6.774 12.956 7.245C12.776 7.263 12.584 7.278 12.374 7.293C12.08 7.314 11.858 7.572 11.879 7.866C11.9 8.148 12.134 8.361 12.413 8.361C12.425 8.361 12.44 8.361 12.452 8.361C12.89 8.328 13.256 8.295 13.598 8.253C13.904 8.706 14.231 9.141 14.576 9.561C14.378 9.612 14.189 9.657 14.006 9.699C13.718 9.765 13.535 10.05 13.601 10.338C13.658 10.587 13.877 10.755 14.123 10.755C14.162 10.755 14.201 10.752 14.24 10.743C14.588 10.665 14.966 10.563 15.356 10.452C15.728 10.851 16.121 11.229 16.526 11.589C16.346 11.667 16.169 11.751 15.989 11.826C15.716 11.94 15.584 12.252 15.698 12.525C15.782 12.732 15.983 12.858 16.193 12.858C16.262 12.858 16.331 12.846 16.397 12.819C16.754 12.672 17.105 12.516 17.45 12.354C17.885 12.687 18.332 13.002 18.797 13.293C18.641 13.392 18.479 13.497 18.302 13.605C18.05 13.761 17.972 14.091 18.128 14.343C18.23 14.508 18.404 14.598 18.584 14.598C18.68 14.598 18.776 14.571 18.863 14.517C19.226 14.292 19.541 14.088 19.829 13.89C20.312 14.148 20.807 14.379 21.314 14.589C21.164 14.73 21.02 14.859 20.882 14.979C20.657 15.171 20.633 15.51 20.825 15.735C20.93 15.858 21.08 15.921 21.23 15.921C21.353 15.921 21.479 15.879 21.581 15.792C21.845 15.564 22.121 15.309 22.427 15.009C22.943 15.18 23.468 15.324 24.005 15.441C23.888 15.594 23.777 15.75 23.657 15.9C23.471 16.131 23.51 16.467 23.741 16.653C23.84 16.731 23.957 16.77 24.077 16.77C24.233 16.77 24.389 16.701 24.494 16.569C24.731 16.272 24.962 15.963 25.187 15.654C25.727 15.732 26.273 15.786 26.825 15.81C26.744 15.969 26.654 16.134 26.552 16.32C26.411 16.578 26.504 16.905 26.765 17.046C26.846 17.091 26.936 17.112 27.023 17.112C27.212 17.112 27.395 17.013 27.494 16.833C27.656 16.536 27.842 16.194 28.025 15.816C28.397 15.804 28.766 15.777 29.132 15.744C28.796 21.927 24.326 27.024 18.446 28.323L18.443 28.326Z" fill="white"/>
</svg>
