<svg width="332" height="794" viewBox="0 0 332 794" fill="none" xmlns="http://www.w3.org/2000/svg">
<g clip-path="url(#clip0_711_41922)">
<path d="M331 1H1V37H331V1Z" fill="#509A2B"/>
<path d="M331 37H1V73H331V37Z" fill="#57A430"/>
<path d="M331 73H1V109H331V73Z" fill="#509A2B"/>
<path d="M331 109H1V145H331V109Z" fill="#57A430"/>
<path d="M331 145H1V181H331V145Z" fill="#509A2B"/>
<path d="M331 181H1V217H331V181Z" fill="#57A430"/>
<path d="M331 217H1V253H331V217Z" fill="#509A2B"/>
<path d="M331 253H1V289H331V253Z" fill="#57A430"/>
<path d="M331 289H1V325H331V289Z" fill="#509A2B"/>
<path d="M331 325H1V361H331V325Z" fill="#57A430"/>
<path d="M331 361H1V397H331V361Z" fill="#509A2B"/>
<path d="M331 397H1V433H331V397Z" fill="#57A430"/>
<path d="M331 433H1V469H331V433Z" fill="#509A2B"/>
<path d="M331 469H1V505H331V469Z" fill="#57A430"/>
<path d="M331 505H1V541H331V505Z" fill="#509A2B"/>
<path d="M331 541H1V577H331V541Z" fill="#57A430"/>
<path d="M331 577H1V613H331V577Z" fill="#509A2B"/>
<path d="M331 613H1V649H331V613Z" fill="#57A430"/>
<path d="M331 649H1V685H331V649Z" fill="#509A2B"/>
<path d="M331 685H1V721H331V685Z" fill="#57A430"/>
<path d="M331 721H1V757H331V721Z" fill="#509A2B"/>
<path d="M331 757H1V793H331V757Z" fill="#57A430"/>
<path d="M250.08 0H0V794H332V0H250.08ZM330 21.35C319.55 20.84 311.16 12.45 310.65 2H330V21.35ZM200.08 2V36H131.09V2H200.08ZM129.09 2V38H202.08V2H248.08V72H83.92V2H129.09ZM195.77 74C195.17 87.71 182.2 98.71 166.34 98.71C150.48 98.71 137.51 87.71 136.91 74H195.77ZM134.91 74C135.51 88.82 149.38 100.71 166.34 100.71C183.3 100.71 197.17 88.82 197.77 74H250.07V2H308.62C309.13 13.56 318.44 22.86 329.99 23.37V396H227.86C227.32 362.33 199.78 335.1 165.99 335.1C132.2 335.1 104.66 362.33 104.12 396H2V23.37C13.56 22.86 22.86 13.55 23.37 2H81.92V74H134.9H134.91ZM225.9 397C225.9 430.03 199.03 456.9 166 456.9C132.97 456.9 106.1 430.03 106.1 397C106.1 363.97 132.97 337.1 166 337.1C199.03 337.1 225.9 363.97 225.9 397ZM21.35 2C20.84 12.45 12.45 20.84 2 21.35V2H21.35ZM2 772.64C12.61 772.98 21.17 781.44 21.69 792H2V772.64ZM131.43 792V758H200.42V792H131.43ZM202.42 792V756H129.43V792H84.26V722H248.41V792H202.41H202.42ZM137.25 720C137.85 706.29 150.82 695.29 166.68 695.29C182.54 695.29 195.51 706.29 196.11 720H137.24H137.25ZM198.11 720C197.51 705.18 183.64 693.29 166.68 693.29C149.72 693.29 135.85 705.18 135.25 720H82.27V792H23.71C23.19 780.33 13.71 770.96 2 770.62V398H104.13C104.67 431.67 132.21 458.9 166 458.9C199.79 458.9 227.33 431.67 227.87 398H330V770.65C318.6 771.33 309.47 780.56 308.97 792H250.42V720H198.12H198.11ZM310.99 792C311.49 781.67 319.71 773.34 330 772.67V792H310.99Z" fill="#C0FFA1"/>
</g>
<defs>
<clipPath id="clip0_711_41922">
<rect width="332" height="794" fill="white"/>
</clipPath>
</defs>
</svg>
